<mxfile host="app.diagrams.net" modified="2023-09-25T07:27:52.557Z" agent="Mozilla/5.0 (Windows NT 10.0; Win64; x64) AppleWebKit/537.36 (KHTML, like Gecko) Chrome/116.0.0.0 Safari/537.36" version="21.6.7" etag="e3FGMannFAKb4Lfpt3D6" type="github">
  <diagram name="第 1 页" id="smJDG7PAU9sJDEi1_wcR">
    <mxGraphModel>
      <root>
        <mxCell id="0" />
        <mxCell id="1" parent="0" />
      </root>
    </mxGraphModel>
  </diagram>
</mxfile>
